<svg xmlns="http://www.w3.org/2000/svg" viewBox="0 0 1600 900">
  <defs>
    <linearGradient id="bg" x1="0" x2="1" y1="0" y2="1">
      <stop offset="0" stop-color="#f7f3ea" />
      <stop offset="1" stop-color="#dfe8d6" />
    </linearGradient>
  </defs>
  <rect width="1600" height="900" fill="url(#bg)" />
  <circle cx="140" cy="130" r="120" fill="#d6e2cc" opacity="0.8" />
  <circle cx="1480" cy="140" r="180" fill="#e2d6c4" opacity="0.6" />
  <path
    d="M200 740c120-140 260-200 420-180 150 20 260 90 360 200 120-120 240-170 360-160 90 10 170 40 240 100v200H0V760c60-10 120-20 180-20z"
    fill="#c9d8bf"
    opacity="0.8"
  />
  <path
    d="M1180 360c-40-110-120-170-220-200 60 80 80 170 60 270 70-10 130-30 160-70z"
    fill="#6b8f71"
    opacity="0.35"
  />
  <path
    d="M440 260c-60-80-140-120-240-140 70 90 100 180 80 260 80-10 140-50 160-120z"
    fill="#8faf86"
    opacity="0.35"
  />
</svg>
