<svg xmlns="http://www.w3.org/2000/svg" viewBox="0 0 140 140">
  <rect width="140" height="140" rx="18" fill="#f2e9da" />
  <path
    d="M70 22c-18 12-28 30-30 54 18-4 34-14 46-30 8-12 12-26 10-40-9 2-18 7-26 16z"
    fill="#6b8f71"
  />
  <path
    d="M70 30c10 16 14 32 12 50 16-4 28-12 36-24-10-16-26-24-48-26z"
    fill="#8faf86"
  />
  <path
    d="M70 74c-2 12-2 24 2 36"
    stroke="#4f6f55"
    stroke-width="3"
    stroke-linecap="round"
    fill="none"
  />
  <rect x="40" y="86" width="60" height="32" rx="6" fill="#d98c4a" />
  <rect x="34" y="78" width="72" height="14" rx="6" fill="#c77737" />
</svg>
